<svg width="24" height="24" viewBox="0 0 24 24" fill="none" xmlns="http://www.w3.org/2000/svg">
<path d="M14.1 12L23.55 2.55C24.15 1.95 24.15 1.05 23.55 0.45C22.95 -0.15 22.05 -0.15 21.45 0.45L12 9.9L2.55 0.45C1.95 -0.15 1.05 -0.15 0.45 0.45C-0.15 1.05 -0.15 1.95 0.45 2.55L9.9 12L0.45 21.45C0.15 21.75 0 22.05 0 22.5C0 23.4 0.6 24 1.5 24C1.95 24 2.25 23.85 2.55 23.55L12 14.1L21.45 23.55C21.75 23.85 22.05 24 22.5 24C22.95 24 23.25 23.85 23.55 23.55C24.15 22.95 24.15 22.05 23.55 21.45L14.1 12Z" fill="black"/>
</svg>
